<?xml version="1.0" encoding="UTF-8"?>
<svg width="23px" height="23px" viewBox="0 0 23 23" version="1.1" xmlns="http://www.w3.org/2000/svg" xmlns:xlink="http://www.w3.org/1999/xlink">
    <!-- Generator: Sketch 63.1 (92452) - https://sketch.com -->
    <title>atoms/icons/confirm copy</title>
    <desc>Created with Sketch.</desc>
    <g id="atoms/icons/confirm-copy" stroke="none" stroke-width="1" fill="none" fill-rule="evenodd">
        <g id="confirm" fill="#AD0606" fill-rule="nonzero">
            <path d="M11.5,0 C5.175,0 0,5.17518801 0,11.5 C0,17.824812 5.175,23 11.5,23 C17.825,23 23,17.824812 23,11.5 C23,5.17518801 17.825,0 11.5,0 Z M11.5,20.1250855 C6.75625,20.1250855 2.875,16.2437799 2.875,11.5 C2.875,6.75622009 6.75625,2.87491454 11.5,2.87491454 C16.24375,2.87491454 20.125,6.75622009 20.125,11.5 C20.125,16.2437799 16.24375,20.1250855 11.5,20.1250855 Z" id="Shape"></path>
            <path d="M7.43933983,7.43933983 C7.98851461,6.89016504 8.85757702,6.85584162 9.44673776,7.33636956 L9.56066017,7.43933983 L15.5606602,13.4393398 C16.1464466,14.0251263 16.1464466,14.9748737 15.5606602,15.5606602 C15.0114854,16.109835 14.142423,16.1441584 13.5532622,15.6636304 L13.4393398,15.5606602 L7.43933983,9.56066017 C6.85355339,8.97487373 6.85355339,8.02512627 7.43933983,7.43933983 Z" id="Line"></path>
            <path d="M7.43933983,7.43933983 C7.98851461,6.89016504 8.85757702,6.85584162 9.44673776,7.33636956 L9.56066017,7.43933983 L15.5606602,13.4393398 C16.1464466,14.0251263 16.1464466,14.9748737 15.5606602,15.5606602 C15.0114854,16.109835 14.142423,16.1441584 13.5532622,15.6636304 L13.4393398,15.5606602 L7.43933983,9.56066017 C6.85355339,8.97487373 6.85355339,8.02512627 7.43933983,7.43933983 Z" id="Line-Copy" transform="translate(11.500000, 11.500000) scale(-1, 1) translate(-11.500000, -11.500000) "></path>
        </g>
    </g>
</svg>