<?xml version="1.0" encoding="UTF-8"?>
<svg width="23px" height="23px" viewBox="0 0 23 23" version="1.1" xmlns="http://www.w3.org/2000/svg" xmlns:xlink="http://www.w3.org/1999/xlink">
    <!-- Generator: Sketch 55.2 (78181) - https://sketchapp.com -->
    <title>icons/confirm</title>
    <desc>Created with Sketch.</desc>
    <g id="Symbols" stroke="none" stroke-width="1" fill="none" fill-rule="evenodd">
        <g id="Material-Input" transform="translate(-322.000000, -21.000000)" fill="#06AD29">
            <g id="atoms/icons/confirm">
                <g transform="translate(322.000000, 21.000000)">
                    <g id="confirm">
                        <path d="M11.5,0 C5.175,0 0,5.17518801 0,11.5 C0,17.824812 5.175,23 11.5,23 C17.825,23 23,17.824812 23,11.5 C23,5.17518801 17.825,0 11.5,0 Z M11.5,20.1250855 C6.75625,20.1250855 2.875,16.2437799 2.875,11.5 C2.875,6.75622009 6.75625,2.87491454 11.5,2.87491454 C16.24375,2.87491454 20.125,6.75622009 20.125,11.5 C20.125,16.2437799 16.24375,20.1250855 11.5,20.1250855 Z" id="Shape" fill-rule="nonzero"></path>
                        <path d="M15.4814815,7.44997325 L10.5925926,12.3998573 L8.51851852,10.2999822 C7.92592593,9.70001783 7.03703704,9.70001783 6.44444444,10.2999822 C5.85185185,10.8999465 5.85185185,11.799893 6.44444444,12.3998573 L9.55555556,15.5498484 C9.85185185,15.8498306 10.1481481,16 10.5925926,16 C11.037037,16 11.3333333,15.8498306 11.6296296,15.5498484 L17.5555556,9.5498484 C18.1481481,8.94988407 18.1481481,8.04993758 17.5555556,7.44997325 C16.962963,6.85000892 16.0740741,6.85000892 15.4814815,7.44997325 Z" id="Path" fill-rule="nonzero"></path>
                    </g>
                </g>
            </g>
        </g>
    </g>
</svg>