<?xml version="1.0" encoding="UTF-8"?>
<svg width="20px" height="20px" viewBox="0 0 25 25" version="1.1" xmlns="http://www.w3.org/2000/svg" xmlns:xlink="http://www.w3.org/1999/xlink">
    <!-- Generator: Sketch 63.1 (92452) - https://sketch.com -->
    <title>atoms/icons/confirm copy</title>
    <desc>Created with Sketch.</desc>
    <g id="atoms/icons/confirm-copy" stroke="none" stroke-width="1" fill="none" fill-rule="evenodd">
        <g id="confirm" fill="#FFFFFF" fill-rule="nonzero">
            <path d="M7.43933983,7.43933983 C7.98851461,6.89016504 8.85757702,6.85584162 9.44673776,7.33636956 L9.56066017,7.43933983 L15.5606602,13.4393398 C16.1464466,14.0251263 16.1464466,14.9748737 15.5606602,15.5606602 C15.0114854,16.109835 14.142423,16.1441584 13.5532622,15.6636304 L13.4393398,15.5606602 L7.43933983,9.56066017 C6.85355339,8.97487373 6.85355339,8.02512627 7.43933983,7.43933983 Z" id="Line"></path>
            <path d="M7.43933983,7.43933983 C7.98851461,6.89016504 8.85757702,6.85584162 9.44673776,7.33636956 L9.56066017,7.43933983 L15.5606602,13.4393398 C16.1464466,14.0251263 16.1464466,14.9748737 15.5606602,15.5606602 C15.0114854,16.109835 14.142423,16.1441584 13.5532622,15.6636304 L13.4393398,15.5606602 L7.43933983,9.56066017 C6.85355339,8.97487373 6.85355339,8.02512627 7.43933983,7.43933983 Z" id="Line-Copy" transform="translate(11.500000, 11.500000) scale(-1, 1) translate(-11.500000, -11.500000) "></path>
        </g>
    </g>
</svg>