<svg xmlns="http://www.w3.org/2000/svg" viewBox="0 0 148.95664 176.75311"><title>Sticker 1.5 inch Width</title><g id="Layer_2" data-name="Layer 2"><g id="Layer_1-2" data-name="Layer 1"><polygon points="145.71 128.536 84.194 167.726 74.523 173.887 64.782 167.689 3.247 128.536 74.523 4.842 145.71 128.536" style="fill:#fddcca"/><path d="M61.5,139.48935c-1.21236,1.062-2.21327,2.31665-4.58631,2.31665-4.10231,0-4.10231-3.75457-8.20462-3.75457s-4.10231,3.75457-8.20931,3.75457c-4.10231,0-4.10231-3.75457-8.20932-3.75457-4.1023,0-4.1023,3.75457-8.20461,3.75457l50.02847,32.08072L124.85508,141.806c-4.10231,0-4.10231-3.75457-8.20462-3.75457-4.107,0-4.107,3.75457-8.20931,3.75457-4.107,0-4.107-3.75457-8.20932-3.75457s-4.10231,3.75457-8.20461,3.75457c-2.373,0-3.37395-1.25465-4.58632-2.31665" style="fill:#74c7ab"/><path d="M84.19383,167.72622l-9.67074,6.1605-9.74121-6.19813c1.64-4.51582,5.10321-11.837,9.71772-15.20626C79.1,155.84219,82.55385,163.17277,84.19383,167.72622Z" style="fill:#f47c42"/><path d="M85.25972,161.27138a1.13583,1.13583,0,0,1-.82313.94236,36.25652,36.25652,0,0,1-10.02837,1.38547,44.32159,44.32159,0,0,1-9.84158-1.49787,1.12593,1.12593,0,0,1-.84127-.95146c-.12408-1.04492,4.12664-14.10009,10.77421-18.95575C81.14363,147.04979,85.39376,160.18794,85.25972,161.27138Z" style="fill:#ec5a24"/><path d="M85.25972,151.93118a1.13583,1.13583,0,0,1-.82313.94235A36.25615,36.25615,0,0,1,74.40822,154.259a44.32168,44.32168,0,0,1-9.84158-1.49786,1.12593,1.12593,0,0,1-.84127-.95146c-.12408-1.04493,4.12664-14.10009,10.77421-18.95575C81.14363,137.70959,85.39376,150.84773,85.25972,151.93118Z" style="fill:#f47c42"/><polygon points="93.185 69.93 90.205 71.838 86.959 73.918 74.445 81.939 61.658 73.749 58.366 71.639 55.689 69.927 55.49 69.798 55.609 69.964 55.805 70.236 57.251 72.35 59.579 75.755 74.439 97.488 89.097 76.055 91.427 72.647 93.075 70.236 93.265 69.964 93.372 69.811 93.185 69.93" style="fill:#2b4084"/><polygon points="93.487 66.048 74.497 33.051 74.497 33.053 74.497 33.051 74.494 33.048 55.492 66.02 55.486 66.048 74.497 78.142 74.503 78.139 74.504 78.137 74.504 78.139 93.487 66.048" style="fill:#2b4084"/><path d="M56.3611,99.533a21.42264,21.42264,0,0,1-8.80609,17.3349A21.4675,21.4675,0,0,1,46.30317,83.1906a1.9687,1.9687,0,0,1,2.55442.04314l.02386.02048a1.96185,1.96185,0,0,1,.51219,2.22943A18.83639,18.83639,0,0,0,49.37355,99.533a18.86987,18.86987,0,0,0,6.90765-1.85147C56.33291,98.29245,56.3611,98.908,56.3611,99.533Z" style="fill:#ec5a24"/><path d="M93.007,99.533a21.42262,21.42262,0,0,0,8.8061,17.3349A21.46751,21.46751,0,0,0,103.0649,83.1906a1.9687,1.9687,0,0,0-2.55442.04314l-.02386.02048a1.96185,1.96185,0,0,0-.51219,2.22943A18.83639,18.83639,0,0,1,99.99452,99.533a18.86977,18.86977,0,0,1-6.90764-1.85147C93.03516,98.29245,93.007,98.908,93.007,99.533Z" style="fill:#ec5a24"/><path d="M87.4992,137.59687a31.95562,31.95562,0,0,1-.23958,3.92263,1.34692,1.34692,0,0,1-.97612,1.1175,42.99472,42.99472,0,0,1-11.89226,1.643,52.559,52.559,0,0,1-11.67076-1.77627,1.33517,1.33517,0,0,1-.99762-1.12829A32.02438,32.02438,0,0,1,61.5,137.59687a31.62292,31.62292,0,0,1,12.99963-25.58676A31.63431,31.63431,0,0,1,87.4992,137.59687Z" style="fill:#ec5a24"/><path d="M124.8559,144.222a7.81723,7.81723,0,0,1-5.733-2.51085c-.96689-.88475-1.40147-1.24361-2.47161-1.24361-1.0729,0-1.50885.35932-2.47666,1.24475a7.8064,7.8064,0,0,1-11.47056-.0016c-.96689-.88429-1.40193-1.24315-2.47161-1.24315s-1.50426.35886-2.4707,1.24338a7.80167,7.80167,0,0,1-11.477-.01033c-.14363-.13216-.28773-.26455-.435-.39373a2.41605,2.41605,0,1,1,3.18382-3.63491c.17575.15419.34784.31182.51993.46968.96689.888,1.40192,1.24819,2.47436,1.24819,1.07015,0,1.50472-.35885,2.47161-1.2436a7.80165,7.80165,0,0,1,11.466-.00115c.96781.88544,1.40377,1.24475,2.47666,1.24475,1.06969,0,1.50426-.35885,2.47116-1.24292a7.80629,7.80629,0,0,1,11.47193-.00045c.96644.88452,1.401,1.24337,2.4707,1.24337a2.41609,2.41609,0,0,1,0,4.83218Z" style="fill:#2b4084"/><path d="M56.91455,144.222a7.81964,7.81964,0,0,1-5.73391-2.51108c-.96643-.88452-1.401-1.24338-2.47069-1.24338s-1.50472.35886-2.47161,1.24315a7.8064,7.8064,0,0,1-11.47056.0016c-.96781-.88543-1.40376-1.24475-2.47666-1.24475-1.06969,0-1.50426.35886-2.4707,1.24338a7.81961,7.81961,0,0,1-5.7339,2.51108,2.41609,2.41609,0,0,1,0-4.83218c1.07014,0,1.50472-.35885,2.47161-1.2436a7.80573,7.80573,0,0,1,11.471.00045c.96689.8843,1.40193,1.24315,2.47161,1.24315,1.0729,0,1.50839-.35931,2.4762-1.24452a7.80141,7.80141,0,0,1,11.466.00092c.9669.88475,1.40147,1.2436,2.47162,1.2436,1.07243,0,1.50747-.36023,2.47436-1.24819.17209-.15786.34417-.31549.51993-.46968a2.41605,2.41605,0,1,1,3.18382,3.63491c-.14731.12918-.2914.26157-.435.39373A7.81641,7.81641,0,0,1,56.91455,144.222Z" style="fill:#2b4084"/><path d="M74.52421,176.75311l-12.677-8.06579.66448-1.82388a54.71321,54.71321,0,0,1,2.244-5.27l4.33748,2.12928c-.52911,1.07863-.97837,2.10266-1.34319,2.99292l6.77239,4.309,6.70722-4.27278c-.40337-.99236-.83887-1.97554-1.28858-2.90687l4.35125-2.10129a55.79645,55.79645,0,0,1,2.17287,5.1612l.65989,1.82067Z" style="fill:#2b4084"/><path d="M74.4104,166.014a39.48992,39.48992,0,0,1-7.98891-.99259c-.82555-.17714-1.65065-.371-2.45555-.5773a3.53749,3.53749,0,0,1-2.63957-3.00049c-.21522-1.82112,2.14855-7.41759,2.99338-9.23527l4.38245,2.037a46.93422,46.93422,0,0,0-2.2697,5.82728c.33132.07687.66494.15144.99856.223a35.29816,35.29816,0,0,0,6.97934.88612,34.23434,34.23434,0,0,0,7.19733-.74937q.49217-.107.96184-.22257a46.07453,46.07453,0,0,0-2.24308-5.83577l4.38888-2.0219c.83519,1.81264,3.16775,7.39625,2.9429,9.216a3.53688,3.53688,0,0,1-2.56982,2.97044c-.748.21637-1.58181.42585-2.45785.61652A39.08436,39.08436,0,0,1,74.4104,166.014Zm9.35643-6.12328-.02019.00574Z" style="fill:#2b4084"/><path d="M74.4104,156.67688c-.64474,0-1.33217-.0296-2.04438-.08788a47.24765,47.24765,0,0,1-6.375-1.00269c-.72092-.15993-1.44139-.33224-2.0329-.486a3.53491,3.53491,0,0,1-2.63177-2.99866c-.18952-1.66143,1.77822-6.6884,3.23521-9.73386l4.35951,2.08568a47.06959,47.06959,0,0,0-2.48859,6.27792c.18585.04314.38731.089.60253.13675a43.083,43.083,0,0,0,5.71693.904,24.76292,24.76292,0,0,0,3.56653.01973,33.749,33.749,0,0,0,5.66507-.78448q.296-.0654.59014-.137a46.543,46.543,0,0,0-2.445-6.27448l4.37053-2.06091c1.12934,2.39475,3.38711,7.91756,3.15766,9.70313a3.54969,3.54969,0,0,1-2.54458,2.95643c-.69247.19962-1.38678.37653-2.06916.5275a38.55168,38.55168,0,0,1-6.45758.89485C75.88117,156.65668,75.14785,156.67688,74.4104,156.67688Z" style="fill:#2b4084"/><path d="M85.04807,127.78526a2.41646,2.41646,0,0,1-.59565-4.75783,41.00017,41.00017,0,0,0,15.81263-8.016,2.4162,2.4162,0,1,1,3.093,3.71292,45.941,45.941,0,0,1-17.71063,8.98518A2.42151,2.42151,0,0,1,85.04807,127.78526Z" style="fill:#2b4084"/><path d="M63.98521,127.70082a2.41559,2.41559,0,0,1-.61813-.08076,46.21265,46.21265,0,0,1-17.3536-8.89249,2.416,2.416,0,1,1,3.08469-3.71935A41.282,41.282,0,0,0,64.60059,122.948a2.41644,2.41644,0,0,1-.61538,4.75278Z" style="fill:#2b4084"/><path d="M74.52467,176.75081,0,129.33288,74.52513,0l74.43151,129.33242ZM6.49613,127.73868l68.0267,43.28374,67.94136-43.28328L74.52238,9.68316Z" style="fill:#2b4084"/><path d="M47.55583,119.284a2.41286,2.41286,0,0,1-1.42533-.46532,23.88367,23.88367,0,0,1-1.39229-37.46792,4.40215,4.40215,0,0,1,6.89628,5.03868,16.30561,16.30561,0,0,0-.60482,10.5016,16.403,16.403,0,0,0,4.1966-1.38265,2.41578,2.41578,0,0,1,3.46328,1.97049c.05874.69707.08857,1.38816.08857,2.05425a23.96352,23.96352,0,0,1-9.797,19.28555A2.4129,2.4129,0,0,1,47.55583,119.284ZM46.55314,86.26276a19.05259,19.05259,0,0,0,1.00269,27.50277,19.1433,19.1433,0,0,0,6.31807-12.58407,21.154,21.154,0,0,1-4.32876.76154,2.41371,2.41371,0,0,1-2.41425-1.51344A21.14367,21.14367,0,0,1,46.55314,86.26276Z" style="fill:#2b4084"/><path d="M101.81382,119.284a2.41189,2.41189,0,0,1-1.42533-.46532,23.96479,23.96479,0,0,1-9.797-19.28555c0-.66861.02983-1.3604.089-2.05585a2.416,2.416,0,0,1,3.46329-1.96889A16.39981,16.39981,0,0,0,98.34,96.891a16.30692,16.30692,0,0,0-.6039-10.50114,4.3724,4.3724,0,0,1,1.17706-4.968l.02616-.02248h0a4.36271,4.36271,0,0,1,5.69214-.04865,23.88292,23.88292,0,0,1-1.39229,37.46792A2.41288,2.41288,0,0,1,101.81382,119.284Zm-6.31807-18.10252a19.14432,19.14432,0,0,0,6.31807,12.58407A19.05184,19.05184,0,0,0,102.817,86.263a21.14565,21.14565,0,0,1-.57821,14.16657,2.41388,2.41388,0,0,1-2.41425,1.51344A21.154,21.154,0,0,1,95.49575,101.18146Z" style="fill:#2b4084"/><path d="M74.38884,146.69612a55.006,55.006,0,0,1-12.27271-1.85325,3.77334,3.77334,0,0,1-2.79146-3.1829A34.14035,34.14035,0,0,1,73.075,110.059l1.42579-1.04123,1.42533,1.04146a34.1569,34.1569,0,0,1,13.732,31.75742,3.75615,3.75615,0,0,1-2.70565,3.14229,45.45566,45.45566,0,0,1-12.56,1.73715Zm-10.34443-6.35066a48.14008,48.14008,0,0,0,10.344,1.51849h.00321a40.79377,40.79377,0,0,0,10.55093-1.36177c.09407-.95634.14134-1.93035.14134-2.90527a29.38256,29.38256,0,0,0-10.584-22.5249,29.37611,29.37611,0,0,0-10.583,22.5249C63.91684,138.51355,63.95951,139.43479,64.04441,140.34546Z" style="fill:#2b4084"/><polyline points="65.675 103.292 65.675 109.09 69.808 116.212" style="fill:#2b4084"/><polygon points="67.718 117.425 63.259 109.74 63.259 103.292 68.091 103.292 68.091 108.44 71.898 115 67.718 117.425" style="fill:#2b4084"/><polyline points="83.338 103.292 83.338 109.09 79.205 116.212" style="fill:#2b4084"/><polygon points="81.295 117.425 77.115 115 80.922 108.44 80.922 103.292 85.754 103.292 85.754 109.74 81.295 117.425" style="fill:#2b4084"/><circle cx="67.90731" cy="122.43834" r="3.35804" style="fill:#2b4084"/><circle cx="81.27142" cy="122.43834" r="3.35804" style="fill:#2b4084"/><path d="M53.4586,112.733a2.40361,2.40361,0,0,1-1.19634-.31893,12.39877,12.39877,0,0,1-5.62744-14.97217,2.41609,2.41609,0,1,1,4.56051,1.59742,7.735,7.735,0,0,0-.1418,4.67316,7.84569,7.84569,0,0,0,3.606,4.50636A2.41634,2.41634,0,0,1,53.4586,112.733Z" style="fill:#2b4084"/><path d="M96.40665,112.4469a2.41634,2.41634,0,0,1-1.20093-4.51416,7.84564,7.84564,0,0,0,3.606-4.50659,7.73432,7.73432,0,0,0-.1418-4.67293,2.41609,2.41609,0,1,1,4.5605-1.59742A12.39873,12.39873,0,0,1,97.603,112.128,2.40363,2.40363,0,0,1,96.40665,112.4469Z" style="fill:#2b4084"/></g></g></svg>